# xmcd
#
# Track frame offsets: 
#        150
#        11528
#        25278
#        40437
#        54297
#        70430
#        84547
#        95776
#        111993
#        130602
#
# Disc length: 1887 seconds
#
# Revision: 0
# Processed by: cddbd v1.5.2PL0 Copyright (c) Steve Scherf et al.
# Submitted via: ExactAudioCopy v1.0b4
#
DISCID=84075d0a
DTITLE=Colin Pollock - Three Cherries Red
DYEAR=2014
DGENRE=Rockin' Blues
TTITLE0=Come On Gimme Boogie
TTITLE1=Love You Forever Tonight
TTITLE2=Long Way Down
TTITLE3=Say Goodbye To The Blues
TTITLE4=Swing That Hammer
TTITLE5=I Got The Blues For You
TTITLE6=It Ain't News I Got The Blues
TTITLE7=Something Got Lost
TTITLE8=For A Better Day
TTITLE9=Three Cherries Red
EXTD=
EXTT0=
EXTT1=
EXTT2=
EXTT3=
EXTT4=
EXTT5=
EXTT6=
EXTT7=
EXTT8=
EXTT9=
PLAYORDER=
